<svg width="32" height="32" xmlns="http://www.w3.org/2000/svg">

 <g>
  <title>background</title>
  <rect fill="none" id="canvas_background" height="34" width="34" y="-1" x="-1"/>
 </g>
 <g>
  <title>Layer 1</title>
  <path stroke="null" stroke-width="0" fill="#1575c3" id="svg_1" d="m9.197557,18.072956l1.912004,0c0.168706,0 0.337412,0.153048 0.337412,0.306096l0,10.917417c0,0.561176 0.506119,1.020319 1.124708,1.020319l4.386361,0c0.618589,0 1.124708,-0.459144 1.124708,-1.020319l0,-10.917417c0,-0.153048 0.168706,-0.306096 0.337412,-0.306096l3.149183,0c0.562354,0 1.068473,-0.357112 1.124708,-0.867271l0.73106,-3.979246c0.112471,-0.612192 -0.449883,-1.224383 -1.124708,-1.224383l-3.711537,0c-0.281177,0 -0.506119,-0.204064 -0.506119,-0.459144l0,-2.550798c0,-0.663208 0.393648,-1.020319 1.124708,-1.020319l3.317889,0c0.618589,0 1.124708,-0.459144 1.124708,-1.020319l0,-4.081277c0,-0.561176 -0.506119,-1.020319 -1.124708,-1.020319l-3.992714,0c-7.310602,0 -7.141896,5.356677 -7.141896,6.121916l0,3.724166c0,0.153048 -0.168706,0.306096 -0.337412,0.306096l-1.912004,0c-0.618589,0 -1.124708,0.459144 -1.124708,1.020319l0,3.979246c0.056235,0.612192 0.562354,1.071335 1.180943,1.071335z" class="st0"/>
 </g>
</svg>