<svg width="64" height="32" xmlns="http://www.w3.org/2000/svg">

 <g>
  <title>background</title>
  <rect fill="none" id="canvas_background" height="34" width="66" y="-1" x="-1"/>
 </g>
 <g>
  <title>Layer 1</title>
  <path stroke="null" fill="#1574c3" id="svg_1" d="m39.144887,28.617261c5.12994,-1.729615 8.801897,-6.594159 8.801897,-12.323509c0,-7.134663 -5.777932,-12.972115 -12.905849,-12.972115c-7.127917,0 -12.905849,5.837452 -12.905849,12.972115c0,5.729351 3.725956,10.593894 8.855896,12.323509c0.647992,0.108101 0.86399,-0.270252 0.86399,-0.648606c0,-0.216202 0,-0.756707 0,-1.459363c0,-0.378353 -0.323996,-0.702656 -0.755991,-0.648606c-2.969965,0.324303 -3.617958,-1.837716 -3.617958,-1.837716c-0.593993,-1.513413 -1.457983,-1.891767 -1.457983,-1.891767c-1.187986,-0.810757 0.107999,-0.810757 0.107999,-0.810757c1.295985,0.108101 1.997977,1.351262 1.997977,1.351262c0.971989,1.729615 2.53797,1.513413 3.40196,1.243161c0.215997,-0.05405 0.377996,-0.270252 0.431995,-0.486454c0.053999,-0.216202 0.107999,-0.432404 0.215997,-0.594555c0.161998,-0.378353 -0.053999,-0.864808 -0.485994,-0.918858c-2.53797,-0.486454 -4.859943,-1.891767 -4.859943,-6.269856c0,-1.189111 0.323996,-2.162019 0.917989,-2.972776c0.215997,-0.324303 0.323996,-0.702656 0.215997,-1.08101c-0.107999,-0.432404 -0.161998,-1.08101 0,-1.837716c0.107999,-0.702656 0.86399,-1.13506 1.511982,-0.918858c0.485994,0.162151 1.079987,0.432404 1.889978,0.918858c0.323996,0.216202 0.701992,0.270252 1.025988,0.162151c0.86399,-0.216202 1.781979,-0.270252 2.645969,-0.270252c0.917989,0 1.781979,0.108101 2.645969,0.270252c0.377996,0.05405 0.755991,0.05405 1.025988,-0.162151c0.755991,-0.486454 1.349984,-0.756707 1.835978,-0.864808c0.701992,-0.216202 1.457983,0.216202 1.565982,0.972909c0.107999,0.756707 0.053999,1.351262 0,1.783666c-0.053999,0.378353 0,0.756707 0.215997,1.08101c0.593993,0.810757 0.917989,1.837716 0.917989,2.972776c0,4.378089 -2.321973,5.783401 -4.859943,6.269856c-0.431995,0.05405 -0.647992,0.540505 -0.485994,0.918858c0.215997,0.432404 0.323996,0.972909 0.323996,1.621514c0,1.729615 0,3.134928 0,3.567332c0,0.270252 0.269997,0.648606 0.917989,0.540505z" class="st0"/>
 </g>
</svg>