<svg width="32" height="32" xmlns="http://www.w3.org/2000/svg">

 <g>
  <title>background</title>
  <rect fill="none" id="canvas_background" height="34" width="34" y="-1" x="-1"/>
 </g>
 <g>
  <title>Layer 1</title>
  <g stroke="null" id="svg_4">
   <path stroke="null" fill="#1574c3" id="svg_1" d="m2.448426,28.651495c0,0.392765 0.314757,0.729422 0.681975,0.729422l4.878741,0c0.367217,0 0.681975,-0.336656 0.681975,-0.729422l0,-17.281681c0,-0.392765 -0.314757,-0.729422 -0.681975,-0.729422l-4.878741,0c-0.367217,0 -0.681975,0.336656 -0.681975,0.729422l0,17.281681z" class="st0"/>
   <path stroke="null" fill="#1574c3" id="svg_2" d="m22.697823,10.472064c-2.360681,0 -4.039388,1.009968 -4.9312,2.076046c-0.209838,0.224437 -0.577055,0.056109 -0.577055,-0.280547l0,-0.89775c0,-0.392765 -0.314757,-0.729422 -0.681975,-0.729422l-4.9312,0c-0.367217,0 -0.681975,0.336656 -0.681975,0.729422c0.05246,3.198233 0,14.251776 0,17.225572c0,0.392765 0.314757,0.729422 0.681975,0.729422l4.98366,0c0.367217,0 0.681975,-0.336656 0.681975,-0.729422l0,-9.370262c0,-0.561094 0,-1.122187 0.157379,-1.514953c0.419677,-1.122187 1.363949,-2.300484 2.990196,-2.300484c2.150843,0 3.147575,1.73939 3.147575,4.264311l0,8.921387c0,0.392765 0.314757,0.729422 0.681975,0.729422l4.878741,0c0.367217,0 0.681975,-0.336656 0.681975,-0.729422l0,-9.650809c-0.05246,-5.779263 -3.147575,-8.472512 -7.082043,-8.472512z" class="st0"/>
   <path stroke="null" fill="#1574c3" id="svg_3" d="m5.543541,8.564346l0,0c1.993464,0 3.200034,-1.346625 3.200034,-3.029905c-0.05246,-1.795499 -1.20657,-3.086014 -3.147575,-3.086014c-1.941004,0 -3.147575,1.290515 -3.147575,3.029905c0,1.73939 1.20657,3.086014 3.095115,3.086014z" class="st0"/>
  </g>
 </g>
</svg>