<svg width="64" height="32" xmlns="http://www.w3.org/2000/svg">

 <g>
  <title>background</title>
  <rect fill="none" id="canvas_background" height="34" width="66" y="-1" x="-1"/>
 </g>
 <g>
  <title>Layer 1</title>
  <path stroke="null" fill="#1574c3" id="svg_1" d="m25.519678,3.010675l-2.342524,0c-0.435818,0 -0.81716,0.249521 -0.926114,0.648754c-0.762682,2.944347 -2.887297,5.439557 -5.774594,6.836874c-0.326864,0.149713 -0.544773,0.499042 -0.544773,0.848371l0,3.044156c0,0.548946 0.490296,0.94818 1.035069,0.94818l2.124615,0c0.435818,0 0.762682,0.299425 0.762682,0.698659l0,7.236108c0,1.247605 1.252978,5.689078 7.6813,5.689078c2.342524,0 3.867888,-0.848371 4.630571,-1.497126c0.435818,-0.349329 0.59925,-0.94818 0.326864,-1.447222l-0.544773,-1.147796c-0.326864,-0.648754 -1.089546,-0.94818 -1.797751,-0.698659c-0.381341,0.149713 -0.81716,0.249521 -1.41641,0.249521c-1.634319,0 -2.397001,-0.898275 -2.397001,-2.245689l0,-6.138216c0,-0.399234 0.326864,-0.698659 0.762682,-0.698659l3.649979,0c0.59925,0 1.035069,-0.449138 1.035069,-0.94818l0,-2.744731c0,-0.548946 -0.490296,-0.94818 -1.035069,-0.94818l-3.323115,0c-0.544773,0 -0.980591,-0.399234 -0.980591,-0.898275l0,-5.938599c0,-0.449138 -0.435818,-0.848371 -0.926114,-0.848371z" class="st0"/>
 </g>
</svg>